<?xml version="1.0" standalone="no"?>
<!DOCTYPE svg PUBLIC "-//W3C//DTD SVG 20010904//EN"
 "http://www.w3.org/TR/2001/REC-SVG-20010904/DTD/svg10.dtd">
<svg version="1.0" xmlns="http://www.w3.org/2000/svg"
 width="572.000000pt" height="463.000000pt" viewBox="0 0 572.000000 463.000000"
 preserveAspectRatio="xMidYMid meet">

<g transform="translate(0.000000,463.000000) scale(0.100000,-0.100000)"
fill="#000000" stroke="none">
<path d="M1235 4609 c-90 -14 -208 -46 -305 -84 -112 -43 -156 -65 -258 -131
-45 -30 -86 -54 -90 -54 -4 0 -13 -9 -20 -20 -7 -11 -17 -20 -23 -20 -6 0 -20
-11 -31 -25 -10 -13 -31 -30 -46 -37 -15 -7 -32 -25 -39 -39 -7 -15 -31 -43
-53 -63 -22 -20 -40 -39 -40 -44 0 -4 -14 -22 -30 -40 -17 -18 -30 -35 -30
-37 0 -3 -16 -30 -36 -62 -97 -150 -177 -358 -210 -543 -22 -128 -21 -2300 1
-2419 33 -171 106 -341 209 -484 31 -43 56 -80 56 -82 0 -9 141 -145 150 -145
6 0 15 -9 22 -20 7 -11 19 -20 26 -20 7 0 15 -7 18 -15 4 -8 12 -15 18 -15 7
0 21 -8 32 -18 28 -25 198 -106 274 -131 214 -68 490 -68 695 2 81 28 182 77
242 118 23 16 45 29 50 29 4 0 14 9 21 20 7 11 16 20 21 20 12 0 141 129 141
141 0 5 9 14 20 21 11 7 20 16 20 20 0 4 18 36 41 70 76 118 123 236 160 398
7 35 15 199 19 445 8 421 14 467 76 660 30 92 140 325 153 325 5 0 12 11 15
25 4 14 11 25 16 25 6 0 10 7 10 15 0 8 5 15 10 15 6 0 10 6 10 14 0 7 11 25
25 40 14 15 25 31 25 36 0 5 9 14 20 20 11 6 18 15 15 21 -4 5 1 12 9 15 9 3
16 12 16 20 0 8 9 19 20 26 11 7 20 18 20 25 0 7 9 18 20 25 11 7 20 18 20 25
0 7 13 22 29 34 16 12 31 29 34 39 2 9 18 27 36 39 l31 22 9 -23 c5 -13 23
-33 40 -46 17 -12 31 -29 31 -36 0 -8 11 -21 25 -30 14 -9 25 -23 25 -30 0 -8
7 -16 15 -20 8 -3 15 -12 15 -20 0 -9 9 -20 20 -26 11 -6 20 -17 20 -24 0 -8
7 -16 15 -20 8 -3 15 -12 15 -21 0 -8 5 -15 10 -15 6 0 10 -7 10 -15 0 -8 5
-15 10 -15 6 0 10 -7 10 -15 0 -8 5 -15 10 -15 6 0 10 -7 10 -15 0 -8 5 -15
10 -15 6 0 10 -7 10 -15 0 -8 4 -15 9 -15 5 0 21 -26 37 -57 16 -32 32 -60 35
-63 20 -16 105 -239 134 -350 41 -160 47 -222 55 -600 8 -405 12 -439 75 -606
28 -75 101 -208 146 -265 16 -20 29 -39 29 -41 0 -4 151 -158 155 -158 1 0 33
-21 71 -47 94 -63 213 -118 325 -149 182 -50 451 -43 632 17 77 25 236 99 260
120 9 9 30 22 45 30 15 8 31 20 35 26 4 7 14 13 21 13 7 0 22 14 34 30 13 17
28 30 35 30 16 0 67 52 67 67 0 6 12 22 28 35 15 13 32 31 37 39 6 9 36 55 69
103 95 143 163 324 186 498 8 57 10 434 7 1208 -3 1033 -5 1131 -21 1200 -42
179 -118 365 -202 498 -19 29 -34 54 -34 56 0 6 -49 63 -107 126 -29 31 -53
62 -53 68 0 7 -6 12 -14 12 -8 0 -29 17 -48 38 -18 21 -41 41 -50 45 -10 3
-18 11 -18 17 0 5 -7 10 -15 10 -7 0 -18 6 -22 13 -4 6 -19 19 -33 27 -14 8
-60 35 -102 61 -104 63 -229 115 -368 152 -110 29 -124 30 -325 31 -226 1
-290 -7 -459 -61 -86 -27 -292 -119 -314 -140 -7 -7 -20 -13 -28 -13 -8 0 -14
-4 -14 -10 0 -5 -4 -10 -9 -10 -6 0 -22 -11 -37 -25 -15 -14 -32 -25 -38 -25
-6 0 -17 -9 -24 -20 -7 -11 -17 -20 -23 -20 -6 0 -20 -11 -31 -25 -11 -14 -24
-25 -29 -25 -12 0 -199 -186 -199 -199 0 -5 -29 -36 -65 -68 -36 -32 -65 -63
-65 -70 0 -7 -16 -25 -35 -40 -19 -15 -35 -33 -35 -38 0 -6 -5 -16 -10 -21 -8
-8 -23 0 -50 25 -22 20 -40 40 -40 45 0 5 -18 24 -40 43 -22 19 -40 40 -40 46
0 7 -32 41 -70 76 -39 36 -70 70 -70 76 0 15 -73 85 -88 85 -6 0 -21 14 -34
30 -12 17 -28 30 -35 30 -7 0 -18 9 -25 20 -7 11 -18 20 -25 20 -7 0 -18 9
-25 20 -7 11 -18 20 -25 20 -7 0 -13 5 -13 10 0 6 -6 10 -13 10 -7 0 -23 9
-35 20 -12 11 -25 20 -31 20 -5 0 -11 3 -13 8 -4 10 -190 100 -267 129 -153
57 -253 75 -456 78 -104 2 -217 0 -250 -6z m384 -644 c125 -30 272 -101 341
-165 17 -16 35 -30 38 -30 9 0 102 -93 102 -102 0 -4 25 -30 55 -59 30 -28 55
-57 55 -63 0 -6 16 -24 35 -39 19 -15 35 -33 35 -39 0 -6 18 -26 40 -45 22
-19 40 -39 40 -45 0 -6 17 -26 38 -45 l37 -33 -22 -16 c-13 -9 -23 -22 -23
-29 0 -8 -18 -29 -40 -48 -22 -19 -40 -38 -40 -43 0 -5 -27 -38 -60 -74 -33
-35 -60 -68 -60 -72 0 -4 -9 -13 -20 -20 -11 -7 -20 -18 -20 -25 0 -7 -9 -18
-20 -25 -11 -7 -20 -17 -20 -22 0 -4 -22 -38 -49 -75 -212 -292 -377 -691
-421 -1019 l-13 -93 -33 32 c-19 18 -34 36 -34 41 0 4 -20 26 -45 49 -25 23
-45 47 -45 53 0 6 -23 30 -50 54 -28 24 -50 48 -50 54 0 6 -20 28 -45 50 -25
22 -45 45 -45 51 0 7 -23 31 -50 55 -28 24 -50 48 -50 54 0 5 -22 30 -50 55
-27 25 -50 50 -50 55 0 6 -18 26 -40 45 -22 19 -40 39 -40 44 0 5 -18 25 -40
45 -22 20 -40 42 -40 49 0 7 -10 19 -23 27 -12 9 -29 28 -37 44 -8 15 -25 39
-37 52 -32 35 -107 185 -136 275 -50 149 -58 313 -21 454 17 65 63 174 78 185
5 3 11 15 12 25 2 9 8 19 13 21 6 2 11 10 11 18 0 8 7 17 15 20 8 4 15 12 15
20 0 7 9 18 20 24 11 6 20 16 20 22 0 16 51 68 67 68 7 0 17 9 23 20 6 11 17
20 24 20 8 0 16 6 19 14 9 22 183 104 267 126 94 24 277 26 369 5z m2823 0
c95 -19 267 -104 318 -156 21 -21 41 -39 46 -39 13 0 64 -53 64 -67 0 -7 9
-17 20 -23 11 -6 20 -17 20 -25 0 -8 5 -15 10 -15 6 0 10 -7 10 -15 0 -8 5
-15 10 -15 6 0 10 -7 10 -15 0 -8 4 -15 9 -15 16 0 80 -167 97 -253 21 -104
14 -270 -16 -377 -20 -71 -92 -238 -108 -250 -4 -3 -16 -22 -26 -43 -11 -21
-30 -49 -43 -63 -13 -14 -23 -29 -23 -34 0 -5 -13 -19 -30 -32 -16 -12 -30
-27 -30 -34 0 -7 -18 -28 -40 -45 -22 -18 -40 -38 -40 -45 0 -7 -22 -32 -50
-56 -27 -24 -50 -48 -50 -55 0 -6 -20 -29 -45 -51 -25 -22 -45 -44 -45 -50 0
-6 -25 -32 -55 -59 -30 -26 -55 -53 -55 -59 0 -6 -22 -32 -50 -58 -27 -26 -50
-51 -50 -56 0 -5 -31 -37 -70 -71 -38 -35 -70 -68 -70 -74 0 -6 -13 -24 -30
-40 l-29 -28 -10 24 c-5 13 -14 62 -21 109 -39 283 -173 611 -367 903 -40 60
-73 113 -73 117 0 4 -7 10 -15 14 -8 3 -15 12 -15 21 0 8 -5 15 -10 15 -6 0
-14 8 -17 18 -4 9 -17 25 -30 35 -13 10 -23 24 -23 30 0 7 -9 18 -20 25 -11 7
-20 17 -20 23 0 6 -11 20 -25 31 -14 11 -25 25 -25 31 0 7 -16 25 -35 40 -19
15 -35 34 -35 41 0 8 -16 26 -35 40 -19 15 -35 33 -35 40 0 8 16 28 35 45 19
17 35 35 35 40 0 5 25 32 55 59 30 28 55 55 55 61 0 5 25 31 55 58 30 26 55
52 55 58 0 15 143 155 158 155 7 0 15 7 18 15 4 8 12 15 20 15 8 0 14 5 14 10
0 6 12 16 28 23 15 6 29 14 32 18 19 25 187 92 271 108 72 14 242 12 321 -4z
m-3724 -2190 c28 -26 52 -51 52 -55 0 -5 25 -32 55 -61 30 -28 55 -56 55 -61
0 -6 23 -30 50 -55 28 -25 50 -50 50 -55 0 -6 27 -36 60 -65 33 -30 60 -59 60
-65 0 -5 23 -30 50 -55 28 -25 50 -50 50 -56 0 -7 25 -34 55 -60 30 -27 55
-52 55 -57 0 -5 25 -32 55 -61 30 -28 55 -55 55 -58 0 -4 27 -35 60 -69 56
-59 74 -92 50 -92 -5 0 -10 -5 -10 -10 0 -17 -97 -108 -137 -129 -100 -50
-227 -64 -332 -36 -63 16 -161 63 -161 76 0 5 -5 9 -11 9 -24 0 -146 139 -177
201 -57 117 -62 158 -62 535 0 309 4 383 20 341 3 -8 29 -36 58 -62z m4352
-292 c0 -383 -5 -424 -60 -534 -63 -124 -219 -248 -350 -278 -101 -23 -228 -8
-321 39 -38 20 -169 144 -169 160 0 6 7 13 15 16 8 4 15 11 15 18 0 6 54 67
120 136 66 68 120 128 120 131 0 4 27 32 60 62 33 31 60 60 60 66 0 5 29 36
65 68 36 32 65 63 65 70 0 6 27 36 60 66 33 29 60 59 60 65 0 5 32 39 70 75
39 36 70 68 70 73 0 11 102 114 112 114 4 0 8 -156 8 -347z"/>
<path d="M2755 1272 c-71 -23 -156 -109 -180 -181 -24 -72 -17 -170 16 -230
13 -24 30 -54 37 -67 7 -13 19 -24 27 -24 8 0 18 -6 22 -13 4 -7 28 -21 53
-32 86 -38 271 -19 303 32 4 7 15 13 22 13 8 0 15 5 15 11 0 6 12 26 26 44 52
69 67 169 38 265 -21 71 -107 159 -178 183 -62 21 -136 21 -201 -1z"/>
</g>
</svg>
